<svg xmlns="http://www.w3.org/2000/svg" viewBox="0 0 150 150">
<!-- SVG created with Arrow, by QuiverAI (https://quiver.ai) -->
  <style type="text/css">.cls-0 {fill:#161616;}</style>
  <path class="cls-0" d="m57.6 64.6 0.1-0.1v-31.3c-0.1-3.5-2.7-5.6-5.7-5.6h-16.3v59.6c0.2-1.3 0.9-2.6 1.7-3.2l20.2-19.4z"/>
  <path class="cls-0" d="m87.6 43.8c-3.4 0.1-7.1 1.3-9.9 3.7l-38.5 38.7c-2.1 2.1-3.4 4.8-3.5 7.5v26.7l77.5-76.4v-0.2h-25.6z"/>
  <path class="cls-0" d="m108.1 96.4-6 5-22.4-20.8-14.6 14.2 21.1 21.4-5 4.1c-0.6 0.5-0.3 0.9 0.2 0.9h27.6c0.4 0 0.7-0.4 0.7-0.6v-24.8c0-0.7-1.1-0.3-1.6 0.3v0.3z"/>
</svg>